<svg width="87" height="90" viewBox="0 0 87 90" fill="none" xmlns="http://www.w3.org/2000/svg">
<g clip-path="url(#clip0_9_5772)">
<path d="M64.0995 84.6446C63.6777 85.3208 63.0956 85.7872 62.4122 85.7872C54.8195 86.1758 47.6486 88.119 40.4777 86.5645C32.8849 85.0099 26.1359 88.119 18.5431 86.9531C16.6449 86.3702 14.7468 85.7872 13.3759 84.5436C5.19258 85.111 0 85.9582 0 86.9026C0 88.6126 17.033 90.0117 38.048 90.0117C59.063 90.0117 76.1002 88.6242 76.1002 86.9026C76.1002 86.0204 71.4897 85.2081 64.0995 84.6446Z" fill="#CCCCCE"/>
<path d="M63.7241 32.9562L39.3556 33.2477L36.3734 34.8799L33.6147 32.9562H27.8484V42.8197L25.6719 45.3458L22.6095 43.5931L22.1202 32.9562H12.3804V81.9358H63.7241V32.9562Z" fill="#FFDB01"/>
<path d="M16.472 32.9562H13.0806V81.9358H16.472V32.9562Z" fill="white"/>
<path d="M63.724 32.9562L54.8911 33.0456V81.9358H63.724V32.9562Z" fill="#FF8603"/>
<path d="M59.9489 87.4427H16.1515C14.9 87.4416 13.7001 86.9831 12.8151 86.1678C11.9302 85.3525 11.4325 84.2469 11.4314 83.0938V23.3918C11.4336 22.2394 11.9318 21.1349 12.8166 20.3204C13.7014 19.5059 14.9007 19.0479 16.1515 19.0469H22.4324C22.5615 19.0389 22.691 19.0555 22.8129 19.0955C22.9348 19.1356 23.0464 19.1982 23.1409 19.2797C23.2354 19.3611 23.3108 19.4596 23.3623 19.5689C23.4138 19.6783 23.4404 19.7962 23.4404 19.9155C23.4404 20.0347 23.4138 20.1526 23.3623 20.262C23.3108 20.3714 23.2354 20.4698 23.1409 20.5513C23.0464 20.6327 22.9348 20.6954 22.8129 20.7354C22.691 20.7755 22.5615 20.792 22.4324 20.7841H16.1515C15.4012 20.7851 14.6819 21.0602 14.1514 21.549C13.6208 22.0378 13.3222 22.7005 13.3211 23.3918V83.0938C13.3222 83.7855 13.6207 84.4486 14.1511 84.938C14.6816 85.4275 15.4008 85.7034 16.1515 85.7055H59.9489C60.6996 85.7034 61.4189 85.4275 61.9493 84.938C62.4798 84.4486 62.7782 83.7855 62.7793 83.0938V23.3918C62.7782 22.7005 62.4797 22.0378 61.9491 21.549C61.4185 21.0602 60.6992 20.7851 59.9489 20.7841H38.7652C38.6361 20.792 38.5066 20.7755 38.3847 20.7354C38.2628 20.6954 38.1512 20.6327 38.0567 20.5513C37.9622 20.4698 37.8868 20.3714 37.8353 20.262C37.7838 20.1526 37.7572 20.0347 37.7572 19.9155C37.7572 19.7962 37.7838 19.6783 37.8353 19.5689C37.8868 19.4596 37.9622 19.3611 38.0567 19.2797C38.1512 19.1982 38.2628 19.1356 38.3847 19.0955C38.5066 19.0555 38.6361 19.0389 38.7652 19.0469H59.9489C61.199 19.0489 62.3972 19.5074 63.2811 20.3217C64.1651 21.1361 64.6626 22.2401 64.6649 23.3918V83.0938C64.6637 84.2462 64.1666 85.3512 63.2826 86.1664C62.3985 86.9816 61.1997 87.4406 59.9489 87.4427Z" fill="#231F20"/>
<path d="M33.9818 20.7841H27.8485C27.7194 20.792 27.5899 20.7755 27.4681 20.7354C27.3462 20.6954 27.2345 20.6327 27.14 20.5513C27.0455 20.4698 26.9702 20.3714 26.9187 20.262C26.8672 20.1526 26.8406 20.0347 26.8406 19.9155C26.8406 19.7962 26.8672 19.6783 26.9187 19.5689C26.9702 19.4596 27.0455 19.3611 27.14 19.2797C27.2345 19.1982 27.3462 19.1356 27.4681 19.0955C27.5899 19.0555 27.7194 19.0389 27.8485 19.0469H33.9818C34.1109 19.0389 34.2404 19.0555 34.3623 19.0955C34.4841 19.1356 34.5958 19.1982 34.6903 19.2797C34.7848 19.3611 34.8602 19.4596 34.9117 19.5689C34.9632 19.6783 34.9897 19.7962 34.9897 19.9155C34.9897 20.0347 34.9632 20.1526 34.9117 20.262C34.8602 20.3714 34.7848 20.4698 34.6903 20.5513C34.5958 20.6327 34.4841 20.6954 34.3623 20.7354C34.2404 20.7755 34.1109 20.792 33.9818 20.7841Z" fill="#231F20"/>
<path d="M63.7241 83.094H12.3761C12.247 83.102 12.1175 83.0854 11.9956 83.0454C11.8738 83.0053 11.7621 82.9426 11.6676 82.8612C11.5731 82.7797 11.4978 82.6813 11.4463 82.5719C11.3947 82.4626 11.3682 82.3446 11.3682 82.2254C11.3682 82.1062 11.3947 81.9882 11.4463 81.8789C11.4978 81.7695 11.5731 81.6711 11.6676 81.5896C11.7621 81.5082 11.8738 81.4455 11.9956 81.4054C12.1175 81.3654 12.247 81.3488 12.3761 81.3568H63.7241C63.9632 81.3715 64.1873 81.4695 64.351 81.6307C64.5148 81.792 64.6058 82.0046 64.6058 82.2254C64.6058 82.4462 64.5148 82.6588 64.351 82.8201C64.1873 82.9813 63.9632 83.0793 63.7241 83.094Z" fill="#231F20"/>
<path d="M63.724 34.1183H39.3555C39.1049 34.1183 38.8646 34.0266 38.6874 33.8633C38.5102 33.7 38.4106 33.4786 38.4106 33.2477C38.4106 33.0169 38.5102 32.7954 38.6874 32.6322C38.8646 32.4689 39.1049 32.3772 39.3555 32.3772H63.724C63.9746 32.3772 64.2149 32.4689 64.3921 32.6322C64.5693 32.7954 64.6688 33.0169 64.6688 33.2477C64.6688 33.4786 64.5693 33.7 64.3921 33.8633C64.2149 34.0266 63.9746 34.1183 63.724 34.1183Z" fill="#231F20"/>
<path d="M33.9817 34.1183H28.7891C28.5385 34.1183 28.2982 34.0266 28.121 33.8633C27.9438 33.7 27.8442 33.4786 27.8442 33.2477C27.8442 33.0169 27.9438 32.7954 28.121 32.6322C28.2982 32.4689 28.5385 32.3772 28.7891 32.3772H33.9817C34.2323 32.3772 34.4726 32.4689 34.6498 32.6322C34.827 32.7954 34.9266 33.0169 34.9266 33.2477C34.9266 33.4786 34.827 33.7 34.6498 33.8633C34.4726 34.0266 34.2323 34.1183 33.9817 34.1183Z" fill="#231F20"/>
<path d="M22.1203 34.1183H12.3763C12.1257 34.1183 11.8853 34.0266 11.7081 33.8633C11.5309 33.7 11.4314 33.4786 11.4314 33.2477C11.4314 33.0169 11.5309 32.7954 11.7081 32.6322C11.8853 32.4689 12.1257 32.3772 12.3763 32.3772H22.1203C22.3709 32.3772 22.6112 32.4689 22.7884 32.6322C22.9656 32.7954 23.0651 33.0169 23.0651 33.2477C23.0651 33.4786 22.9656 33.7 22.7884 33.8633C22.6112 34.0266 22.3709 34.1183 22.1203 34.1183Z" fill="#231F20"/>
<path d="M62.505 21.6547C62.3696 21.6554 62.2357 21.6289 62.1127 21.5769C61.998 21.5296 61.8948 21.4617 61.8089 21.3772C61.7231 21.2926 61.6565 21.1931 61.6129 21.0846C61.5693 20.976 61.5496 20.8605 61.555 20.7449C61.5605 20.6292 61.5909 20.5157 61.6445 20.411C62.1975 19.2863 62.4355 18.0517 62.3368 16.8202C62.2381 15.5887 61.8057 14.3998 61.0793 13.362C60.3529 12.3243 59.3557 11.471 58.1788 10.8802C57.0019 10.2894 55.683 9.97989 54.3428 9.98009C53.9858 9.97939 53.6293 10.0015 53.2756 10.0462C53.1421 10.0619 53.0065 10.0514 52.8778 10.0152C52.7491 9.97903 52.6302 9.91804 52.529 9.83629C52.4275 9.75531 52.3462 9.655 52.2909 9.54228C52.2355 9.42955 52.2074 9.3071 52.2084 9.18338V9.11732C52.2151 7.51848 51.6583 5.96083 50.6218 4.6785C49.5853 3.39617 48.1251 2.45844 46.4606 2.00625C44.7961 1.55407 43.0172 1.61186 41.3914 2.17094C39.7656 2.73003 38.3807 3.7602 37.4448 5.10661C37.3745 5.20677 37.2829 5.29281 37.1756 5.35959C37.0684 5.42637 36.9476 5.47252 36.8205 5.49525C36.6935 5.51645 36.5631 5.51324 36.4375 5.48582C36.312 5.4584 36.1939 5.40736 36.0907 5.3359C34.897 4.5245 33.4823 4.03425 32.0041 3.91974C30.5259 3.80524 29.0422 4.07096 27.7182 4.68733C26.3942 5.3037 25.2818 6.24652 24.505 7.41084C23.7281 8.57516 23.3172 9.91529 23.3181 11.282C23.3181 11.4608 23.3181 11.6512 23.3476 11.8805C23.3606 12.034 23.3291 12.1879 23.2565 12.3265C23.1839 12.4652 23.0727 12.5836 22.9342 12.6697C22.7957 12.7558 22.6349 12.8066 22.4682 12.8168C22.3014 12.827 22.1348 12.7962 21.9851 12.7277C21.1568 12.3443 20.242 12.1459 19.315 12.1487C17.7212 12.1497 16.1929 12.7335 15.0659 13.7719C13.9389 14.8102 13.3052 16.2182 13.3041 17.6867C13.3003 18.5598 13.5245 19.4209 13.9579 20.1973C14.0527 20.4013 14.0593 20.6311 13.9764 20.8394C13.8935 21.0478 13.7273 21.2192 13.5118 21.3184C13.2963 21.4177 13.0479 21.4374 12.8172 21.3735C12.5865 21.3096 12.391 21.1669 12.2707 20.9746C11.578 19.7137 11.2982 18.2945 11.4653 16.8897C11.6325 15.4849 12.2393 14.1553 13.2121 13.0626C14.1848 11.97 15.4814 11.1615 16.9439 10.7356C18.4064 10.3098 19.9718 10.2849 21.4494 10.6641C21.6173 8.35453 22.7307 6.18984 24.5646 4.60771C26.3985 3.02557 28.816 2.14404 31.3284 2.14133C33.1122 2.13943 34.8626 2.58695 36.3902 3.43548C37.6163 2.00785 39.2779 0.950879 41.1614 0.400584C43.0448 -0.149711 45.064 -0.168156 46.9589 0.347622C48.8538 0.863401 50.5379 1.8898 51.7944 3.29476C53.0509 4.69972 53.8224 6.41895 54.0096 8.23123H54.3006C55.9562 8.23271 57.5849 8.61634 59.0381 9.34708C60.4912 10.0778 61.7225 11.1324 62.6194 12.4144C63.5163 13.6965 64.0503 15.1651 64.1725 16.6863C64.2947 18.2074 64.0013 19.7325 63.3191 21.1222C63.2513 21.2724 63.139 21.402 62.995 21.4962C62.8511 21.5903 62.6812 21.6453 62.505 21.6547Z" fill="#231F20"/>
<path d="M47.4462 12.9959C47.2649 12.9969 47.0872 12.9496 46.9345 12.8597C46.7817 12.7699 46.6603 12.6412 46.585 12.4893C46.5097 12.3374 46.4837 12.1687 46.51 12.0035C46.5363 11.8383 46.6138 11.6835 46.7333 11.558C48.0721 10.1281 49.8478 9.10362 51.8285 8.61828C53.8092 8.13294 55.9028 8.20935 57.8356 8.83752C57.9595 8.87004 58.0748 8.92557 58.1746 9.00069C58.2744 9.0758 58.3564 9.16892 58.4157 9.27432C58.4749 9.37972 58.5102 9.49517 58.5192 9.61357C58.5283 9.73198 58.511 9.85084 58.4683 9.96286C58.4257 10.0749 58.3586 10.1777 58.2713 10.2649C58.1839 10.3522 58.0782 10.4221 57.9604 10.4703C57.8427 10.5185 57.7155 10.544 57.5867 10.5452C57.4578 10.5465 57.3301 10.5235 57.2113 10.4776C55.6355 9.96567 53.9288 9.90402 52.3144 10.3007C50.7 10.6973 49.2531 11.5338 48.1633 12.7005C48.0741 12.7947 47.9638 12.8699 47.84 12.9209C47.7162 12.9718 47.5818 12.9975 47.4462 12.9959Z" fill="#231F20"/>
<path d="M25.1403 45.8938C23.1283 45.8938 21.4916 44.5141 21.4916 42.8197V20.0612C21.483 19.9423 21.5009 19.823 21.5444 19.7107C21.5879 19.5984 21.6559 19.4955 21.7443 19.4085C21.8327 19.3214 21.9395 19.252 22.0582 19.2045C22.177 19.1571 22.305 19.1326 22.4344 19.1326C22.5638 19.1326 22.6918 19.1571 22.8105 19.2045C22.9292 19.252 23.0361 19.3214 23.1245 19.4085C23.2128 19.4955 23.2809 19.5984 23.3243 19.7107C23.3678 19.823 23.3858 19.9423 23.3772 20.0612V42.8197C23.3772 43.5542 24.1702 44.1527 25.1403 44.1527C26.1105 44.1527 26.9035 43.5542 26.9035 42.8197V20.0612C26.8949 19.9423 26.9129 19.823 26.9563 19.7107C26.9998 19.5984 27.0678 19.4955 27.1562 19.4085C27.2446 19.3214 27.3515 19.252 27.4702 19.2045C27.5889 19.1571 27.7169 19.1326 27.8463 19.1326C27.9757 19.1326 28.1037 19.1571 28.2224 19.2045C28.3411 19.252 28.448 19.3214 28.5364 19.4085C28.6248 19.4955 28.6928 19.5984 28.7363 19.7107C28.7797 19.823 28.7977 19.9423 28.7891 20.0612V42.8197C28.7891 44.5141 27.1524 45.8938 25.1403 45.8938Z" fill="#231F20"/>
<path d="M36.3735 35.7504C35.4889 35.7494 34.6408 35.4252 34.0154 34.8489C33.3899 34.2726 33.038 33.4913 33.0369 32.6763V20.0612C33.0369 19.8303 33.1364 19.6089 33.3136 19.4457C33.4908 19.2824 33.7311 19.1907 33.9817 19.1907C34.2323 19.1907 34.4727 19.2824 34.6499 19.4457C34.8271 19.6089 34.9266 19.8303 34.9266 20.0612V32.6763C34.9266 33.0298 35.079 33.3689 35.3504 33.6189C35.6217 33.8689 35.9897 34.0093 36.3735 34.0093C36.7572 34.0093 37.1252 33.8689 37.3965 33.6189C37.6679 33.3689 37.8203 33.0298 37.8203 32.6763V20.0612C37.8203 19.8303 37.9198 19.6089 38.097 19.4457C38.2742 19.2824 38.5146 19.1907 38.7652 19.1907C39.0158 19.1907 39.2561 19.2824 39.4333 19.4457C39.6105 19.6089 39.71 19.8303 39.71 20.0612V32.6763C39.7089 33.4913 39.357 34.2726 38.7315 34.8489C38.1061 35.4252 37.258 35.7494 36.3735 35.7504Z" fill="#231F20"/>
<path d="M82.2798 77.6608H63.7198C63.4692 77.6608 63.2288 77.5691 63.0516 77.4058C62.8744 77.2426 62.7749 77.0211 62.7749 76.7903V71.2095C62.7749 70.9786 62.8744 70.7572 63.0516 70.5939C63.2288 70.4306 63.4692 70.3389 63.7198 70.3389H76.9944C77.4911 70.3389 77.9675 70.1571 78.3187 69.8335C78.6699 69.5099 78.8673 69.071 78.8673 68.6134V37.8763C78.8673 37.4186 78.6699 36.9797 78.3187 36.6561C77.9675 36.3325 77.4911 36.1507 76.9944 36.1507H63.724C63.4734 36.1507 63.2331 36.059 63.0559 35.8958C62.8787 35.7325 62.7791 35.5111 62.7791 35.2802V29.6955C62.7791 29.5814 62.8036 29.4684 62.8511 29.363C62.8987 29.2576 62.9683 29.1619 63.0561 29.0813C63.1439 29.0008 63.2481 28.937 63.3627 28.8937C63.4773 28.8504 63.6001 28.8284 63.724 28.8289H82.284C83.5329 28.8299 84.7305 29.2869 85.6145 30.0999C86.4984 30.9128 86.9966 32.0153 86.9999 33.166V73.3159C86.9977 74.4683 86.4995 75.5728 85.6147 76.3873C84.7299 77.2018 83.5306 77.6598 82.2798 77.6608ZM64.6647 75.9158H82.2798C83.0301 75.9148 83.7494 75.6397 84.2799 75.1509C84.8105 74.6621 85.1091 73.9994 85.1102 73.3081V33.166C85.1091 32.4747 84.8105 31.812 84.2799 31.3232C83.7494 30.8344 83.0301 30.5593 82.2798 30.5583H64.6647V34.4058H76.9986C77.9951 34.4068 78.9504 34.772 79.655 35.4211C80.3596 36.0703 80.7559 36.9505 80.757 37.8685V68.6056C80.7559 69.5237 80.3596 70.4038 79.655 71.053C78.9504 71.7022 77.9951 72.0673 76.9986 72.0684H64.6647V75.9158Z" fill="#231F20"/>
<path d="M30.6493 77.8785H25.4946C24.2721 77.8479 23.1121 77.3739 22.2669 76.5595C21.4217 75.7451 20.9596 74.6562 20.9812 73.5296V42.0502C20.9782 41.2711 21.1963 40.5048 21.6139 39.8272C21.7411 39.6322 21.946 39.4907 22.185 39.4332C22.4239 39.3756 22.6778 39.4066 22.8923 39.5193C23.1068 39.6321 23.2648 39.8178 23.3326 40.0366C23.4003 40.2554 23.3724 40.4899 23.2548 40.69C22.9994 41.1047 22.8656 41.5735 22.8667 42.0502V73.5296C22.8405 74.1967 23.1023 74.8462 23.5949 75.3358C24.0875 75.8253 24.7707 76.115 25.4946 76.1413H30.6493C31.3729 76.1139 32.0553 75.824 32.5477 75.3347C33.0401 74.8454 33.3023 74.1965 33.2772 73.5296V42.0502C33.3023 41.3838 33.0399 40.7353 32.5475 40.2466C32.055 39.7579 31.3725 39.4688 30.6493 39.4425H28.4178C28.1672 39.4425 27.9269 39.3508 27.7497 39.1875C27.5725 39.0243 27.473 38.8028 27.473 38.572C27.473 38.3411 27.5725 38.1197 27.7497 37.9564C27.9269 37.7931 28.1672 37.7014 28.4178 37.7014H30.6493C31.8718 37.732 33.0318 38.206 33.877 39.0204C34.7222 39.8347 35.1843 40.9236 35.1627 42.0502V73.5296C35.1843 74.6562 34.7222 75.7451 33.877 76.5595C33.0318 77.3739 31.8718 77.8479 30.6493 77.8785Z" fill="#231F20"/>
<path d="M51.3185 77.8785H46.1597C44.9371 77.8479 43.7771 77.3739 42.9319 76.5595C42.0867 75.7451 41.6247 74.6562 41.6462 73.5296V42.0502C41.6247 40.9236 42.0867 39.8347 42.9319 39.0204C43.7771 38.206 44.9371 37.732 46.1597 37.7014H51.3185C52.5411 37.732 53.701 38.206 54.5463 39.0204C55.3915 39.8347 55.8536 40.9236 55.832 42.0502V73.5296C55.8536 74.6562 55.3915 75.7451 54.5463 76.5595C53.701 77.3739 52.5411 77.8479 51.3185 77.8785ZM46.1597 39.4308C45.4372 39.4582 44.7558 39.7477 44.2642 40.2363C43.7726 40.7249 43.5108 41.3728 43.536 42.0386V73.518C43.5097 74.1844 43.771 74.8333 44.2627 75.3228C44.7544 75.8122 45.4364 76.1023 46.1597 76.1296H51.3185C52.0421 76.1023 52.7246 75.8123 53.217 75.323C53.7093 74.8337 53.9716 74.1848 53.9464 73.518V42.0386C53.9715 41.3721 53.7092 40.7236 53.2167 40.235C52.7242 39.7463 52.0417 39.4572 51.3185 39.4308H46.1597Z" fill="#231F20"/>
</g>
<defs>
<clipPath id="clip0_9_5772">
<rect width="87" height="90" fill="white"/>
</clipPath>
</defs>
</svg>
